<?xml version="1.0" encoding="UTF-8"?>
<svg version="1.1" xmlns="http://www.w3.org/2000/svg" width="500" height="150">
<path d="M0 0 C1.1442041 0.00829834 2.2884082 0.01659668 3.46728516 0.02514648 C19.40189639 0.3433857 32.57955662 4.99163488 44.4375 16 C56.08356055 28.32119449 61.56642501 43.61268917 61.3359375 60.484375 C60.4186235 78.7340957 52.39027215 94.29505403 39.26953125 106.859375 C34.10872 111.35400583 28.34356922 114.5142269 22.1875 117.4375 C21.22972656 117.89253906 20.27195312 118.34757812 19.28515625 118.81640625 C4.7635406 124.41063939 -15.64059478 123.70336187 -29.8125 117.4375 C-45.92961714 109.54499658 -55.97558428 98.46943766 -61.8125 81.4375 C-66.75186522 65.71899922 -64.47651187 47.14265724 -57.125 32.5625 C-53.72667596 26.86731875 -49.48424031 22.11702654 -44.8125 17.4375 C-44.1009375 16.71433594 -43.389375 15.99117187 -42.65625 15.24609375 C-30.75588808 3.8846975 -16.11084162 -0.15086837 0 0 Z M-21.1484375 16.26953125 C-33.75327021 32.69132035 -34.71982788 56.33689005 -32.31640625 76.1640625 C-30.5281684 88.31977411 -27.0117361 102.20233947 -16.7578125 110 C-9.57659338 114.62965042 -3.29386633 115.14176529 5.1875 114.4375 C12.79298519 112.37119797 18.19705083 106.80346282 22.109375 100.1875 C32.99633255 79.86721748 33.01913215 52.9266565 26.4375 31.125 C23.00048538 21.62266547 17.11349602 12.87748806 7.8359375 8.26953125 C-3.38646907 4.74390795 -13.35617831 7.92576513 -21.1484375 16.26953125 Z " fill="#FFFFFF" transform="translate(83.8125,6.5625)"/>
<path d="M0 0 C1.02029297 -0.01998047 2.04058594 -0.03996094 3.09179688 -0.06054688 C11.4550881 -0.05520974 18.53851071 1.50084226 25.0625 6.9375 C30.02150319 13.13625399 30.20295728 19.5435742 30.125 27.33984375 C30.11654053 28.63567383 30.10808105 29.93150391 30.09936523 31.26660156 C30.09315155 31.93888794 30.08693787 32.61117432 30.08053589 33.30383301 C29.1331161 52.13343724 29.1331161 52.13343724 32.0625 70.4375 C35.3625 71.0975 38.6625 71.7575 42.0625 72.4375 C42.3925 73.4275 42.7225 74.4175 43.0625 75.4375 C42.0625 77.4375 42.0625 77.4375 39.76171875 78.25390625 C17.31181489 83.81542588 17.31181489 83.81542588 9.0625 79.4375 C7.38176959 77.0995609 6.8487654 75.26805544 6.0625 72.4375 C5.1034375 73.30375 5.1034375 73.30375 4.125 74.1875 C-2.56430556 79.10209184 -9.86738436 82.01757931 -18.2265625 81.21875 C-24.98133567 80.04400684 -28.66898406 77.46218792 -32.8125 71.9375 C-34.95249788 65.27972882 -35.26403209 57.51986735 -32.4375 51 C-26.6444965 41.85049637 -16.05010989 38.78958757 -6.4296875 35.13867188 C-0.05317054 32.6222534 3.8961482 30.7702036 7.0625 24.4375 C7.49258598 19.7644504 7.62663789 15.69398894 5.6875 11.375 C4.19997501 9.3404385 4.19997501 9.3404385 2.0625 8.4375 C0.35547265 8.36753986 -1.35418003 8.35309846 -3.0625 8.375 C-3.97257812 8.38402344 -4.88265625 8.39304687 -5.8203125 8.40234375 C-6.86832031 8.41974609 -6.86832031 8.41974609 -7.9375 8.4375 C-8.17533203 9.52417969 -8.17533203 9.52417969 -8.41796875 10.6328125 C-9.90155739 16.78027926 -11.13313688 21.19178375 -15.9375 25.4375 C-20.48643714 26.98607434 -23.59301274 26.36838323 -27.9375 24.4375 C-30.00215577 22.80725171 -30.83710675 21.96308818 -31.3359375 19.3515625 C-31.28728765 14.60009334 -31.22294702 11.14687567 -27.9375 7.4375 C-19.15956498 1.46850419 -10.49095037 -0.07262458 0 0 Z M-10.9375 48.4375 C-13.56638538 52.38082807 -14.2400583 55.82013055 -13.69140625 60.56640625 C-13.04943827 63.65126125 -12.29413106 66.01482616 -10.25 68.4375 C-6.86329039 69.90202307 -4.59530984 69.94202549 -0.9375 69.4375 C4.39412445 66.15650034 6.53848952 62.52844917 8.0625 56.4375 C8.39224709 52.92382378 8.34990606 49.46239084 8.25 45.9375 C8.23646484 45.0196875 8.22292969 44.101875 8.20898438 43.15625 C8.17398097 40.91603197 8.12488869 38.67709406 8.0625 36.4375 C2.00483245 36.4375 -6.40003893 44.55291102 -10.9375 48.4375 Z " fill="#FFFFFF" transform="translate(440.9375,46.5625)"/>
<path d="M0 0 C0.00846388 0.55107233 0.01692776 1.10214466 0.02564812 1.66991615 C0.23244033 15.09129286 0.44986255 28.5124613 0.67867851 41.93348122 C0.78901269 48.42384756 0.89583255 54.91423212 0.99462891 61.40478516 C1.09009972 67.66837473 1.19479152 73.93174846 1.3058815 80.1950798 C1.34664556 82.58481853 1.38408533 84.97461635 1.41814804 87.36445999 C1.46642068 90.71145221 1.52650308 94.05803939 1.58935547 97.40478516 C1.60662186 98.88724731 1.60662186 98.88724731 1.62423706 100.3996582 C1.72811734 105.26519903 1.92912445 109.4969961 4 114 C6.2029802 115.38249718 6.2029802 115.38249718 9 116 C10.8871875 116.556875 10.8871875 116.556875 12.8125 117.125 C13.864375 117.41375 14.91625 117.7025 16 118 C15.505 119.485 15.505 119.485 15 121 C12.26670419 122.03334066 9.65397617 122.12621286 6.75390625 122.12939453 C5.51241821 122.13412277 5.51241821 122.13412277 4.24584961 122.13894653 C2.91759155 122.13591019 2.91759155 122.13591019 1.5625 122.1328125 C0.6454126 122.13376923 -0.2716748 122.13472595 -1.21655273 122.13571167 C-3.15315825 122.13639137 -5.08976606 122.13455173 -7.02636719 122.13037109 C-9.9889844 122.1250199 -12.95145 122.13032321 -15.9140625 122.13671875 C-17.79687533 122.13605793 -19.67968807 122.13477669 -21.5625 122.1328125 C-22.44800537 122.13483673 -23.33351074 122.13686096 -24.24584961 122.13894653 C-25.0735083 122.13579437 -25.90116699 122.13264221 -26.75390625 122.12939453 C-27.47908447 122.12859894 -28.2042627 122.12780334 -28.95141602 122.12698364 C-31.07468674 121.99537046 -32.95710991 121.57933401 -35 121 C-35 119.68 -35 118.36 -35 117 C-31.04 116.01 -27.08 115.02 -23 114 C-20.34827378 106.00278258 -20.72858243 97.88378791 -20.76953125 89.55859375 C-20.77072624 87.94686419 -20.77117554 86.33513392 -20.7709198 84.72340393 C-20.77247923 81.35030736 -20.78072121 77.97731771 -20.79418945 74.60424805 C-20.81108225 70.32369547 -20.81500599 66.0432611 -20.81424427 61.7626791 C-20.81451913 58.43281467 -20.8200518 55.10297504 -20.82724571 51.77311897 C-20.83038503 50.19739023 -20.83238843 48.62165874 -20.83313942 47.04592705 C-20.84089929 39.26828007 -20.92945475 31.49559636 -21.32299805 23.72680664 C-21.3794902 22.54937393 -21.43598236 21.37194122 -21.4941864 20.15882874 C-22.04107533 16.74348271 -22.93408523 14.7546641 -25 12 C-27.39874901 10.87606954 -27.39874901 10.87606954 -30.0625 10.375 C-34.79711816 9.30432277 -34.79711816 9.30432277 -37 6 C-36.67 5.34 -36.34 4.68 -36 4 C-33.2277832 3.40576172 -33.2277832 3.40576172 -29.55078125 2.9296875 C-28.90054489 2.84373322 -28.25030853 2.75777893 -27.58036804 2.66921997 C-26.19972561 2.48854466 -24.8184958 2.31231169 -23.43676758 2.14013672 C-21.33728986 1.8780941 -19.23996898 1.60242138 -17.14257812 1.32421875 C-11.39728665 0.57988359 -5.80212681 -0.04365822 0 0 Z " fill="#FFFFFF" transform="translate(189,5)"/>
<path d="M0 0 C13.86 0 27.72 0 42 0 C42 1.32 42 2.64 42 4 C41.030625 4.2475 40.06125 4.495 39.0625 4.75 C35.91793422 5.61911162 35.91793422 5.61911162 35.20922852 7.80175781 C34.95194893 10.50484466 35.50358658 11.94035972 36.58984375 14.421875 C36.95843506 15.27547607 37.32702637 16.12907715 37.70678711 17.00854492 C38.11292236 17.9132251 38.51905762 18.81790527 38.9375 19.75 C39.34556885 20.67852783 39.7536377 21.60705566 40.17407227 22.5637207 C42.80763089 28.49698834 45.55343659 34.37192677 48.4375 40.1875 C48.7667749 40.85168945 49.0960498 41.51587891 49.43530273 42.20019531 C50.7638015 44.81629463 51.91140496 46.91140496 54 49 C63.91900826 29.02224326 63.91900826 29.02224326 67.7734375 7.75390625 C66.47923995 4.81908454 63.82322807 4.20137365 61 3 C61 2.01 61 1.02 61 0 C70.57 0 80.14 0 90 0 C90.495 1.485 90.495 1.485 91 3 C89.66727616 5.66544767 88.43163731 5.75706257 85.6875 6.8125 C76.58673516 10.74368481 73.77257184 19.93230298 70.30078125 28.640625 C69.56033083 30.52158899 68.8199627 32.40258778 68.08297729 34.28491211 C63.34213307 46.37634639 58.42517003 58.36431216 52.88623047 70.1171875 C52.05100656 71.89163564 51.24520395 73.67984686 50.44140625 75.46875 C49 78 49 78 46 79 C42.57420742 75.92329172 40.69823421 72.86932388 38.671875 68.75024414 C38.21246521 67.8250724 38.21246521 67.8250724 37.74377441 66.88121033 C37.08326993 65.54837557 36.42648938 64.21369013 35.77307129 62.87736702 C34.73723835 60.7590583 33.69167076 58.64580942 32.64355469 56.53355408 C30.41999483 52.04763915 28.20972886 47.55523954 26 43.0625 C23.43788968 37.85776145 20.87033646 32.65578412 18.2935791 27.45828056 C17.26696096 25.38195955 16.24801494 23.30199626 15.22949219 21.22169495 C14.59603677 19.94068172 13.96226427 18.65982522 13.328125 17.37915039 C12.7805957 16.26536514 12.23306641 15.1515799 11.66894531 14.00404358 C8.58930148 8.46079168 5.85555679 5.52853588 0 3 C0 2.01 0 1.02 0 0 Z " fill="#FFFFFF" transform="translate(256,49)"/>
<path d="M0 0 C0.69006889 0.00197388 1.38013779 0.00394775 2.09111786 0.00598145 C3.77697975 0.01108998 5.46283298 0.0189349 7.14868164 0.02734375 C7.16081192 1.29188385 7.16081192 1.29188385 7.17318726 2.58197021 C7.25113518 10.52757345 7.3384265 18.4730073 7.43620872 26.41839218 C7.48614987 30.50317744 7.53248004 34.58793711 7.57055664 38.67285156 C7.60743711 42.61518691 7.65380446 46.55730707 7.70674515 50.49945831 C7.72527444 52.00330072 7.74038784 53.50718924 7.7520256 55.01110077 C7.76891338 57.11797612 7.7979536 59.22436023 7.82983398 61.33105469 C7.84315765 62.53018494 7.85648132 63.72931519 7.87020874 64.96478271 C8.13822141 67.9123053 8.49783846 69.59920533 10.14868164 72.02734375 C12.53710581 73.36881917 12.53710581 73.36881917 15.27368164 74.27734375 C16.18375977 74.6125 17.09383789 74.94765625 18.03149414 75.29296875 C19.07950195 75.65648438 19.07950195 75.65648438 20.14868164 76.02734375 C20.14868164 77.01734375 20.14868164 78.00734375 20.14868164 79.02734375 C15.51106618 80.19446048 11.01871608 80.18882596 6.26977539 80.1953125 C5.42069107 80.1986409 4.57160675 80.2019693 3.6967926 80.20539856 C1.90740499 80.21044697 0.11800801 80.21280753 -1.67138672 80.21264648 C-4.40795301 80.21483905 -7.14411985 80.2330333 -9.88061523 80.25195312 C-11.62215032 80.25488627 -13.36368731 80.25687159 -15.10522461 80.2578125 C-15.92197159 80.26499802 -16.73871857 80.27218353 -17.58021545 80.27958679 C-24.57163539 80.25144591 -24.57163539 80.25144591 -27.85131836 78.02734375 C-27.17163086 76.10546875 -27.17163086 76.10546875 -25.85131836 74.02734375 C-23.46850586 73.19921875 -23.46850586 73.19921875 -20.72631836 72.77734375 C-19.81624023 72.6278125 -18.90616211 72.47828125 -17.96850586 72.32421875 C-17.26983398 72.22625 -16.57116211 72.12828125 -15.85131836 72.02734375 C-14.89935533 67.2278241 -14.70534866 62.56657467 -14.71850586 57.69140625 C-14.71754913 56.89439301 -14.71659241 56.09737976 -14.71560669 55.2762146 C-14.71492827 53.5902295 -14.7167589 51.90424175 -14.72094727 50.21826172 C-14.72622923 47.69492369 -14.72102785 45.17176952 -14.71459961 42.6484375 C-14.08820434 25.59313048 -14.08820434 25.59313048 -16.85131836 9.02734375 C-19.18022931 8.00033931 -19.18022931 8.00033931 -21.91381836 7.33984375 C-22.83291992 7.08847656 -23.75202148 6.83710937 -24.69897461 6.578125 C-25.40924805 6.39636719 -26.11952148 6.21460938 -26.85131836 6.02734375 C-26.85131836 4.70734375 -26.85131836 3.38734375 -26.85131836 2.02734375 C-23.99810182 1.6833607 -21.14423246 1.3521718 -18.28881836 1.02734375 C-17.50829102 0.93195312 -16.72776367 0.8365625 -15.92358398 0.73828125 C-10.60587624 0.14507082 -5.34812716 -0.02933428 0 0 Z " fill="#FFFFFF" transform="translate(376.851318359375,46.97265625)"/>
<path d="M0 0 C0.69006889 0.00197388 1.38013779 0.00394775 2.09111786 0.00598145 C3.77697975 0.01108998 5.46283298 0.0189349 7.14868164 0.02734375 C7.16081192 1.29188385 7.16081192 1.29188385 7.17318726 2.58197021 C7.25113518 10.52757345 7.3384265 18.4730073 7.43620872 26.41839218 C7.48614987 30.50317744 7.53248004 34.58793711 7.57055664 38.67285156 C7.60743711 42.61518691 7.65380446 46.55730707 7.70674515 50.49945831 C7.72527444 52.00330072 7.74038784 53.50718924 7.7520256 55.01110077 C7.76891338 57.11797612 7.7979536 59.22436023 7.82983398 61.33105469 C7.84315765 62.53018494 7.85648132 63.72931519 7.87020874 64.96478271 C8.13822141 67.9123053 8.49783846 69.59920533 10.14868164 72.02734375 C12.53710581 73.36881917 12.53710581 73.36881917 15.27368164 74.27734375 C16.18375977 74.6125 17.09383789 74.94765625 18.03149414 75.29296875 C19.07950195 75.65648438 19.07950195 75.65648438 20.14868164 76.02734375 C20.14868164 77.01734375 20.14868164 78.00734375 20.14868164 79.02734375 C15.51106618 80.19446048 11.01871608 80.18882596 6.26977539 80.1953125 C5.42069107 80.1986409 4.57160675 80.2019693 3.6967926 80.20539856 C1.90740499 80.21044697 0.11800801 80.21280753 -1.67138672 80.21264648 C-4.40795301 80.21483905 -7.14411985 80.2330333 -9.88061523 80.25195312 C-11.62215032 80.25488627 -13.36368731 80.25687159 -15.10522461 80.2578125 C-15.92197159 80.26499802 -16.73871857 80.27218353 -17.58021545 80.27958679 C-24.57163539 80.25144591 -24.57163539 80.25144591 -27.85131836 78.02734375 C-27.17163086 76.10546875 -27.17163086 76.10546875 -25.85131836 74.02734375 C-23.46850586 73.19921875 -23.46850586 73.19921875 -20.72631836 72.77734375 C-19.81624023 72.6278125 -18.90616211 72.47828125 -17.96850586 72.32421875 C-17.26983398 72.22625 -16.57116211 72.12828125 -15.85131836 72.02734375 C-14.89935533 67.2278241 -14.70534866 62.56657467 -14.71850586 57.69140625 C-14.71754913 56.89439301 -14.71659241 56.09737976 -14.71560669 55.2762146 C-14.71492827 53.5902295 -14.7167589 51.90424175 -14.72094727 50.21826172 C-14.72622923 47.69492369 -14.72102785 45.17176952 -14.71459961 42.6484375 C-14.08820434 25.59313048 -14.08820434 25.59313048 -16.85131836 9.02734375 C-19.18022931 8.00033931 -19.18022931 8.00033931 -21.91381836 7.33984375 C-22.83291992 7.08847656 -23.75202148 6.83710937 -24.69897461 6.578125 C-25.40924805 6.39636719 -26.11952148 6.21460938 -26.85131836 6.02734375 C-26.85131836 4.70734375 -26.85131836 3.38734375 -26.85131836 2.02734375 C-23.99810182 1.6833607 -21.14423246 1.3521718 -18.28881836 1.02734375 C-17.50829102 0.93195312 -16.72776367 0.8365625 -15.92358398 0.73828125 C-10.60587624 0.14507082 -5.34812716 -0.02933428 0 0 Z " fill="#FFFFFF" transform="translate(236.851318359375,46.97265625)"/>
<path d="M0 0 C3.3020291 1.62204938 5.17219129 2.90879761 7.375 5.8125 C8.6826408 10.38924281 8.56095015 14.43371269 6.5625 18.75 C4.2426967 22.38135288 1.46857836 23.61024254 -2.625 24.6875 C-6.50134279 25.1975451 -9.50668929 24.76943782 -13 23 C-16.29802084 20.2516493 -17.64981193 18.7681627 -18.4765625 14.59375 C-18.73153161 10.13850023 -18.48681453 6.97218163 -15.625 3.4375 C-10.88434442 -0.96453733 -6.25673569 -0.64420551 0 0 Z " fill="#FFFFFF" transform="translate(375,5)"/>
<path d="M0 0 C3.3020291 1.62204938 5.17219129 2.90879761 7.375 5.8125 C8.6826408 10.38924281 8.56095015 14.43371269 6.5625 18.75 C4.2426967 22.38135288 1.46857836 23.61024254 -2.625 24.6875 C-6.50134279 25.1975451 -9.50668929 24.76943782 -13 23 C-16.29802084 20.2516493 -17.64981193 18.7681627 -18.4765625 14.59375 C-18.73153161 10.13850023 -18.48681453 6.97218163 -15.625 3.4375 C-10.88434442 -0.96453733 -6.25673569 -0.64420551 0 0 Z " fill="#FFFFFF" transform="translate(235,5)"/>
</svg>
